PathFileType	4	(X/Y/Z)	data/andrienko/jump_jo 3.trc
DataRate	CameraRate	NumFrames	NumMarkers	Units	OrigDataRate	OrigDataStartFrame	OrigNumFrames
400	400	4	71	mm	400	229	456
Frame#	Time	r_asis			l_asis			r_psis			sacrum			l_psis			r_illiac			r_troch			l_illiac			l_troch			r_thigh1			r_thigh2			r_thigh3			r_thigh4			rl_knee			rm_knee			r_shank1			r_shank2			r_shank3			r_shank4			r_heel			rl_ankle			rm_ankle			r_metatarsal5			r_metatarsal1			l_thigh1			l_thigh2			l_thigh3			l_thigh4			ll_knee			lm_knee			l_shank1			l_shank2			l_shank3			l_shank4			l_heel			ll_ankle			lm_ankle			l_metatarsal5			l_metatarsal1			back_down			neck			back_right			back_left			head_up			head_front			head_left			head_right			r_shoulder			r_humerus1			r_humerus2			r_humerus3			rl_elbow			rm_elbow			r_radius1			r_radius2			r_radius3			rl_wrist			rm_wrist			r_hand			l_shoulder			l_humerus1			l_humerus2			l_humerus3			ll_elbow			lm_elbow			l_radius1			l_radius2			l_radius3			ll_wrist			lm_wrist			l_hand		
		X1	Y1	Z1	X2	Y2	Z2	X3	Y3	Z3	X4	Y4	Z4	X5	Y5	Z5	X6	Y6	Z6	X7	Y7	Z7	X8	Y8	Z8	X9	Y9	Z9	X10	Y10	Z10	X11	Y11	Z11	X12	Y12	Z12	X13	Y13	Z13	X14	Y14	Z14	X15	Y15	Z15	X16	Y16	Z16	X17	Y17	Z17	X18	Y18	Z18	X19	Y19	Z19	X20	Y20	Z20	X21	Y21	Z21	X22	Y22	Z22	X23	Y23	Z23	X24	Y24	Z24	X25	Y25	Z25	X26	Y26	Z26	X27	Y27	Z27	X28	Y28	Z28	X29	Y29	Z29	X30	Y30	Z30	X31	Y31	Z31	X32	Y32	Z32	X33	Y33	Z33	X34	Y34	Z34	X35	Y35	Z35	X36	Y36	Z36	X37	Y37	Z37	X38	Y38	Z38	X39	Y39	Z39	X40	Y40	Z40	X41	Y41	Z41	X42	Y42	Z42	X43	Y43	Z43	X44	Y44	Z44	X45	Y45	Z45	X46	Y46	Z46	X47	Y47	Z47	X48	Y48	Z48	X49	Y49	Z49	X50	Y50	Z50	X51	Y51	Z51	X52	Y52	Z52	X53	Y53	Z53	X54	Y54	Z54	X55	Y55	Z55	X56	Y56	Z56	X57	Y57	Z57	X58	Y58	Z58	X59	Y59	Z59	X60	Y60	Z60	X61	Y61	Z61	X62	Y62	Z62	X63	Y63	Z63	X64	Y64	Z64	X65	Y65	Z65	X66	Y66	Z66	X67	Y67	Z67	X68	Y68	Z68	X69	Y69	Z69	X70	Y70	Z70	X71	Y71	Z71
229	0.5700	-463.436	556.380	494.902	-466.815	552.882	281.252	-590.621	696.859	469.998	-566.325	729.947	383.807	-592.013	698.935	311.914	-466.156	639.054	555.913	-472.504	528.240	597.269	-473.609	634.331	216.230	-477.795	523.230	175.678	-416.610	489.728	581.810	-387.885	558.776	567.131	-274.937	498.317	575.765	-302.334	444.987	583.287	-182.499	396.881	571.299	-164.099	379.727	426.120	-268.778	315.020	583.756	-206.977	267.598	574.555	-276.450	186.873	564.502	-326.799	225.758	577.795	-489.297	76.967	511.503	-418.375	89.867	565.078	-393.364	79.895	463.132	-288.097	33.790	584.511	-267.976	34.023	488.953	-410.971	446.200	194.484	-387.301	518.053	180.732	-270.662	479.007	174.956	-290.188	416.033	187.442	-178.369	411.207	173.535	-167.856	383.674	320.816	-294.205	323.387	171.497	-236.804	280.852	167.885	-299.587	197.545	180.538	-350.459	227.515	183.998	-496.912	66.365	242.143	-421.112	88.150	192.206	-402.691	91.411	291.920	-284.239	29.442	169.163	-261.446	34.730	258.474	-495.108	796.310	380.997	-186.958	939.712	386.706	-300.880	910.454	491.868	-302.925	912.392	283.879	-73.936	1111.580	392.158	53.476	1034.077	393.874	-38.002	1009.238	294.236	-58.072	1014.289	482.513	-112.723	856.955	547.223	-226.012	736.655	649.958	-214.650	858.848	695.622	-286.170	787.441	714.348	-377.513	788.797	774.890	-409.006	855.961	709.813	-394.013	693.259	682.230	-473.176	720.071	773.029	-481.610	651.241	696.316	-552.099	670.937	612.143	-534.674	609.235	679.109	-499.812	619.886	617.804	-118.922	871.140	230.550	-215.073	728.128	121.020	-219.202	846.893	62.693	-275.811	761.610	42.037	-331.801	735.472	-1.870	-399.747	811.998	35.006	-414.401	719.327	129.150	-392.962	636.085	29.940	-457.885	629.133	105.989	-492.730	582.114	104.850	-530.609	657.440	136.871	-493.637	623.769	157.047
230	0.5725	-462.272	557.534	494.853	-465.713	554.074	281.208	-589.760	697.816	470.197	-565.619	730.910	383.837	-591.307	699.858	311.929	-465.503	639.508	555.899	-471.754	528.851	597.258	-472.817	635.001	216.332	-477.156	523.785	175.680	-415.943	490.140	581.713	-387.052	559.116	567.146	-274.251	498.371	575.717	-301.762	445.118	583.174	-182.145	396.739	571.165	-163.740	379.505	425.998	-268.485	314.944	583.631	-206.750	267.529	574.479	-276.206	186.649	564.246	-326.549	225.818	577.727	-489.309	77.073	511.523	-418.338	89.913	565.048	-393.279	79.848	463.112	-288.080	33.798	584.514	-267.763	34.123	488.942	-410.463	446.593	194.555	-386.509	518.403	180.661	-270.057	478.945	174.891	-289.789	416.041	187.581	-178.014	410.939	173.578	-167.382	383.538	320.864	-293.916	323.272	171.578	-236.578	280.726	167.912	-299.487	197.376	180.612	-350.309	227.436	184.128	-496.890	66.428	242.171	-421.059	88.177	192.193	-402.641	91.403	291.940	-284.246	29.470	169.162	-261.452	34.704	258.485	-494.264	797.196	381.051	-187.029	941.355	386.772	-300.708	911.662	491.911	-302.849	913.725	283.913	-74.929	1113.739	392.265	52.898	1036.935	393.990	-38.419	1011.640	294.266	-58.523	1016.552	482.580	-112.406	858.691	547.179	-225.223	737.804	649.784	-214.129	859.811	695.827	-285.545	788.357	714.435	-376.729	789.246	775.045	-408.427	856.548	710.214	-392.819	693.332	682.808	-472.443	720.436	773.179	-481.141	651.735	696.343	-551.676	671.056	612.083	-533.845	609.744	679.055	-499.083	620.421	617.837	-118.735	873.064	230.643	-214.127	729.922	121.099	-219.050	848.452	62.693	-275.249	762.916	42.123	-331.235	736.571	-1.807	-399.379	813.032	35.021	-413.847	720.234	129.230	-392.230	637.086	29.946	-457.181	629.968	105.972	-491.980	583.029	104.773	-529.912	658.153	136.853	-492.889	624.451	156.969
231	0.5750	-461.054	558.793	494.816	-464.555	555.376	281.147	-588.907	698.694	470.082	-564.865	731.888	383.910	-590.433	700.898	311.902	-464.454	640.913	555.819	-471.094	529.511	597.258	-472.039	635.883	216.336	-476.409	524.463	175.715	-415.346	490.504	581.644	-386.150	559.498	567.138	-273.560	498.425	575.642	-301.178	445.291	583.069	-181.735	396.534	570.988	-163.336	379.313	425.878	-268.162	314.835	583.487	-206.528	267.466	574.464	-276.042	186.615	564.185	-326.307	225.764	577.582	-489.280	77.195	511.546	-418.244	89.986	565.032	-393.227	79.834	463.069	-288.053	33.749	584.504	-267.608	34.173	488.939	-409.978	447.003	194.751	-384.366	519.380	179.871	-269.449	479.006	174.870	-289.416	416.103	187.701	-177.654	410.732	173.593	-166.893	383.429	320.901	-293.675	323.162	171.651	-236.322	280.575	167.932	-299.323	197.175	180.669	-350.129	227.346	184.216	-496.849	66.464	242.191	-421.018	88.208	192.226	-402.626	91.394	291.965	-284.234	29.432	169.157	-261.435	34.648	258.454	-493.896	798.169	381.038	-187.046	943.205	386.817	-300.572	913.094	491.994	-302.742	915.204	283.903	-76.053	1116.099	392.430	52.377	1040.009	394.055	-38.827	1014.087	294.366	-59.033	1018.816	482.656	-112.094	860.564	547.182	-224.789	738.862	649.575	-213.639	860.904	696.019	-284.954	789.483	714.499	-376.072	789.714	775.245	-407.902	857.305	710.635	-392.018	694.044	682.847	-471.617	720.822	773.321	-479.923	652.560	696.218	-550.478	672.279	612.266	-532.984	610.261	679.041	-498.345	621.238	617.839	-118.583	875.214	230.711	-213.599	731.786	121.061	-218.876	850.164	62.664	-274.721	764.467	42.186	-330.712	737.792	-1.665	-399.044	814.116	35.119	-413.318	721.117	129.279	-391.675	638.158	30.031	-456.899	631.346	106.169	-491.288	583.886	104.768	-529.288	659.009	136.958	-492.195	625.138	156.978
232	0.5775	-459.760	560.159	494.752	-463.375	556.753	281.085	-588.006	699.687	470.134	-564.113	732.962	383.922	-589.605	701.897	311.897	-463.569	642.031	555.767	-470.504	530.045	597.174	-471.248	636.836	216.352	-475.725	525.126	175.727	-414.586	491.030	581.552	-385.459	559.710	566.906	-272.912	498.512	575.593	-300.505	445.515	582.943	-181.340	396.376	570.793	-162.951	379.156	425.723	-267.899	314.780	583.349	-206.257	267.371	574.393	-275.843	186.584	564.099	-326.060	225.681	577.382	-489.271	77.333	511.569	-418.173	90.050	564.994	-393.118	79.915	463.011	-288.021	33.729	584.501	-267.438	34.237	488.899	-409.519	447.388	194.937	-383.496	519.834	179.735	-268.863	479.031	174.884	-289.012	416.173	187.831	-177.277	410.420	173.588	-166.518	383.247	320.963	-293.438	323.069	171.725	-236.108	280.386	167.961	-299.180	197.083	180.671	-349.960	227.261	184.262	-496.818	66.506	242.220	-420.976	88.234	192.231	-402.564	91.376	292.001	-284.185	29.377	169.132	-261.415	34.599	258.448	-493.342	799.385	381.102	-187.137	944.978	386.889	-300.490	914.595	492.045	-302.701	916.705	283.941	-76.995	1118.425	392.429	51.739	1043.188	394.150	-39.324	1016.799	294.432	-59.556	1021.285	482.714	-111.854	862.492	547.134	-223.522	740.411	649.544	-213.114	862.087	696.256	-284.357	790.405	714.568	-375.286	790.318	775.392	-407.425	857.996	711.162	-391.194	694.850	682.853	-470.766	721.383	773.419	-479.085	652.977	696.202	-549.627	673.079	612.370	-532.297	611.030	679.060	-497.437	621.866	617.904	-118.395	877.374	230.785	-213.045	733.682	121.114	-218.761	851.936	62.654	-274.206	766.030	42.316	-330.174	739.149	-1.502	-398.725	815.220	35.124	-412.774	722.126	129.323	-390.252	639.296	29.696	-456.600	632.412	106.270	-490.318	585.039	104.560	-528.682	659.836	137.038	-491.265	625.782	156.869
